<svg width="49" height="47" viewBox="0 0 49 47" version="1.1" xmlns="http://www.w3.org/2000/svg" xmlns:xlink="http://www.w3.org/1999/xlink" xmlns:figma="http://www.figma.com/figma/ns">
<title>Vector</title>
<desc>Created using Figma</desc>
<g id="Canvas" transform="translate(-6609 -64)" figma:type="canvas">
<g id="Vector" style="mix-blend-mode:normal;" figma:type="vector">
<use xlink:href="#path0_fill" transform="translate(6609 64)" fill="#FEE000" style="mix-blend-mode:normal;"/>
</g>
</g>
<defs>
<path id="path0_fill" d="M 25.7895 39.104C 25.7895 39.104 25.4211 38.728 25.0526 38.728C 24.6842 38.728 24.6842 39.104 24.3158 39.104L 10.3158 46.624L 12.8947 30.832C 12.8947 30.832 12.8947 30.456 12.8947 30.08C 12.5263 30.08 12.5263 29.704 12.1579 29.704L -5.62166e-06 17.672L 12.5263 17.672C 12.8947 17.672 13.6316 17.672 14.3684 17.672C 15.1053 17.672 15.8421 17.672 16.5789 17.672C 16.5789 17.672 16.9474 17.672 17.3158 17.672C 17.3158 17.296 17.6842 16.92 17.6842 16.92C 17.6842 16.544 18.0526 16.168 18.0526 16.168L 24.6842 0L 31.3158 15.792C 31.3158 16.168 31.6842 16.544 31.6842 16.92C 31.6842 17.296 32.0526 17.672 32.0526 17.672L 32.4211 17.672C 33.1579 17.672 33.8947 17.672 34.6316 17.672C 35.3684 17.672 35.7368 17.672 36.1053 17.672L 49 17.672L 37.2105 29.704C 37.2105 29.704 36.8421 30.08 36.4737 30.08C 36.4737 30.456 36.4737 30.456 36.4737 30.832L 39.0526 47L 25.7895 39.104Z"/>
</defs>
</svg>
